# xmcd CD database file
#
# Track frame offsets:
#	182
#	27695
#	62227
#	93847
#	114910
#	148840
#	163160
#
# Disc length: 2738 seconds
#
# Revision: 2
# Processed by: cddbd v1.5.2PL0 Copyright (c) Steve Scherf et al.
# Submitted via: CDex 1.51
#
DISCID=600ab007
DTITLE=Lee Konitz - Ideal Scene
DYEAR=1986
DGENRE=Jazz
TTITLE0=Chick Came Around
TTITLE1=Tidal Breeze
TTITLE2=Silly Samba
TTITLE3=Ezz-thetic
TTITLE4=If You Could See Me Now
TTITLE5=Stare-Case
TTITLE6=Sella By Starlight
EXTD=YEAR: 1986
EXTT0=
EXTT1=
EXTT2=
EXTT3=
EXTT4=
EXTT5=
EXTT6=
PLAYORDER=
